<svg width="139" height="30" viewBox="0 0 139 30" fill="none" xmlns="http://www.w3.org/2000/svg">
<path d="M50.0042 7.20782V20.8013H47.8256V7.20782H50.0042Z" fill="#002840"/>
<path d="M89.182 15.1836V20.8013H87.0075V15.5467C87.0511 14.7447 86.6516 13.9834 85.9668 13.5636C85.2821 13.1438 84.4223 13.1331 83.7274 13.5357C83.0324 13.9384 82.6141 14.6896 82.6377 15.4925V20.8013H80.4633V15.5467C80.5078 14.9463 80.2939 14.3555 79.8755 13.9227C79.457 13.4898 78.8737 13.2562 78.2721 13.2805C77.678 13.2856 77.1114 13.5314 76.7016 13.9616C76.2918 14.3918 76.0739 14.9698 76.0977 15.5634V20.8013H73.9232V11.4524H76.0977V12.5209C76.7938 11.711 77.8137 11.2523 78.8815 11.2688C80.1231 11.2403 81.2954 11.8397 81.9992 12.8631C82.769 11.8464 83.9753 11.2549 85.2504 11.2688C86.3027 11.2262 87.325 11.6245 88.0712 12.3675C88.8175 13.1106 89.22 14.1312 89.182 15.1836Z" fill="#002840"/>
<path d="M96.3189 11.2688V13.5726C94.2321 13.4266 93.1678 14.5159 93.1678 15.9474V20.8014H90.985V11.4524H93.1594V12.7755C93.9251 11.8145 95.0902 11.2589 96.3189 11.2688Z" fill="#002840"/>
<path d="M106.181 16.9074H98.823C99.1096 18.2025 100.286 19.104 101.611 19.0443C102.698 19.0864 103.713 18.5026 104.224 17.5418L106.035 18.3014C105.239 19.9571 103.557 21.0031 101.719 20.985C98.7479 20.985 96.7111 18.8272 96.7111 16.1269C96.6826 14.835 97.1812 13.5872 98.0922 12.6707C99.0032 11.7542 100.248 11.2481 101.54 11.2688C104.224 11.2688 106.724 13.4975 106.181 16.9074ZM98.8397 15.2588H104.224C103.921 14.0534 102.837 13.2085 101.594 13.2095C100.313 13.1731 99.1732 14.0207 98.8397 15.2588Z" fill="#002840"/>
<path d="M117.2 11.4524V20.8013H115.021V19.5492C114.249 20.4792 113.095 21.0063 111.887 20.9808C109.278 20.9808 107.337 18.9858 107.337 16.1227C107.337 13.2596 109.278 11.2688 111.887 11.2688C113.095 11.2433 114.249 11.7703 115.021 12.7003V11.4482L117.2 11.4524ZM115.021 16.1269C115.052 15.3758 114.775 14.6446 114.256 14.1015C113.736 13.5583 113.018 13.2498 112.266 13.2471C110.672 13.2471 109.549 14.5325 109.549 16.1269C109.549 17.7212 110.672 19.0108 112.266 19.0108C113.018 19.0069 113.737 18.6976 114.256 18.1537C114.775 17.6099 115.052 16.8783 115.021 16.1269Z" fill="#002840"/>
<path d="M118.719 16.1269C118.729 13.8094 120.369 11.8192 122.642 11.3667C124.914 10.9141 127.192 12.1243 128.089 14.2613L126.077 14.9499C125.646 13.9567 124.676 13.3049 123.594 13.2805C121.962 13.2805 120.893 14.5326 120.893 16.1269C120.83 17.4637 121.751 18.6471 123.062 18.9137C124.374 19.1804 125.684 18.4508 126.148 17.1953L128.105 17.9466C127.372 19.8173 125.548 21.0308 123.539 20.985C122.247 21.0094 121.001 20.5041 120.09 19.5866C119.18 18.669 118.684 17.419 118.719 16.1269Z" fill="#002840"/>
<path d="M138.489 15.384V20.8097H136.315V15.7262C136.355 15.0754 136.118 14.4379 135.663 13.9718C135.207 13.5056 134.575 13.2544 133.923 13.2804C133.264 13.269 132.629 13.5323 132.172 14.0073C131.714 14.4823 131.475 15.1261 131.511 15.7846V20.8013H129.336V7.20782H131.511V12.6669C132.25 11.7781 133.347 11.2654 134.503 11.2688C136.661 11.2688 138.489 12.7921 138.489 15.384Z" fill="#002840"/>
<path d="M38.5142 12.1035V7.20782H36.3397V20.8013H38.5142V20.1377C39.3109 20.6398 40.2353 20.902 41.1769 20.8931C41.8034 20.8954 42.4248 20.7807 43.0092 20.5551C44.7466 19.7608 45.8593 18.0242 45.8549 16.1139C45.8503 14.2035 44.7295 12.4722 42.9883 11.6861C42.4073 11.4643 41.7905 11.3511 41.1686 11.3522C40.2298 11.3411 39.3079 11.602 38.5142 12.1035ZM40.9224 18.9607C39.9142 18.9746 38.9836 18.4214 38.5142 17.5292C38.0525 16.6483 38.0525 15.597 38.5142 14.7162C38.9814 13.8207 39.9124 13.264 40.9224 13.2763C41.6684 13.2782 42.3819 13.5817 42.9007 14.1178C43.4195 14.6539 43.6995 15.377 43.6769 16.1227C43.7006 16.8691 43.4212 17.5933 42.9023 18.1303C42.3833 18.6673 41.6691 18.9714 40.9224 18.9733V18.9607Z" fill="#002840"/>
<path d="M51.6153 16.1269C51.5865 14.1271 52.769 12.3081 54.6084 11.5228C56.4477 10.7375 58.5793 11.1415 60.0038 12.5454C61.4282 13.9494 61.8631 16.0749 61.1045 17.9255C60.346 19.776 58.5443 20.9848 56.5443 20.985C55.2375 21.0251 53.9713 20.5285 53.0401 19.6108C52.109 18.693 51.5941 17.4341 51.6153 16.1269ZM56.5443 18.9733C57.2903 18.9714 58.0039 18.6679 58.5227 18.1318C59.0415 17.5957 59.3214 16.8726 59.2989 16.1269C59.2989 15.1428 58.7739 14.2334 57.9216 13.7414C57.0693 13.2493 56.0193 13.2493 55.167 13.7414C54.3147 14.2334 53.7897 15.1428 53.7897 16.1269C53.7636 16.8736 54.0424 17.5987 54.562 18.1356C55.0816 18.6725 55.7972 18.9749 56.5443 18.9733Z" fill="#002840"/>
<path d="M62.5584 16.1269C62.5279 14.125 63.7104 12.3033 65.5512 11.516C67.392 10.7287 69.526 11.132 70.9525 12.5368C72.379 13.9416 72.8151 16.0692 72.0561 17.9219C71.2971 19.7745 69.4937 20.9848 67.4917 20.985C66.1845 21.025 64.9179 20.5286 63.9861 19.611C63.0543 18.6934 62.5384 17.4345 62.5584 16.1269ZM67.4917 18.9733C68.2377 18.9714 68.9512 18.6679 69.47 18.1318C69.9888 17.5957 70.2688 16.8726 70.2463 16.1269C70.2463 15.1428 69.7212 14.2334 68.869 13.7413C68.0167 13.2493 66.9666 13.2493 66.1144 13.7413C65.2621 14.2334 64.7371 15.1428 64.7371 16.1269C64.711 16.8736 64.9898 17.5987 65.5094 18.1356C66.0289 18.6725 66.7445 18.9749 67.4917 18.9733Z" fill="#002840"/>
<path d="M15 30C23.2843 30 30 23.2843 30 15C30 6.71573 23.2843 0 15 0C6.71573 0 0 6.71573 0 15C0 23.2843 6.71573 30 15 30Z" fill="#002840"/>
<path d="M18.0384 11.8823L17.3038 13.7729C18.0984 14.2899 18.5714 15.1791 18.5559 16.1269C18.5559 17.5975 17.3638 18.7896 15.8932 18.7896C14.4225 18.7896 13.2304 17.5975 13.2304 16.1269C13.1988 15.4192 13.4513 14.7283 13.9318 14.2078C14.4123 13.6873 15.0809 13.3805 15.7888 13.3556L16.4775 11.4357C15.1459 11.2186 13.7863 11.5982 12.7597 12.4736C11.7332 13.349 11.1437 14.6317 11.1477 15.9808V20.8013H13.2346V20.0334C14.0303 20.5382 14.955 20.802 15.8973 20.793C18.0957 20.8232 20.0213 19.3252 20.5326 17.1869C21.0439 15.0485 20.0043 12.8415 18.0301 11.8739L18.0384 11.8823Z" fill="#FFD500"/>
<path d="M11.1394 11.6527C11.7348 11.0459 12.4439 10.5623 13.2262 10.2295V7.20782H11.1394V11.6527Z" fill="#FFD500"/>
</svg>
