<svg width="37" height="36" viewBox="0 0 37 36" fill="none" xmlns="http://www.w3.org/2000/svg">
<path d="M6.92309 12.375C8.83484 12.375 10.3846 10.864 10.3846 9C10.3846 7.13604 8.83484 5.625 6.92309 5.625C5.01133 5.625 3.46155 7.13604 3.46155 9C3.46155 10.864 5.01133 12.375 6.92309 12.375Z" stroke="#666880" stroke-width="1.5" stroke-linecap="round" stroke-linejoin="round"/>
<path d="M6.92304 14.625C5.39294 14.625 3.92552 15.2176 2.84358 16.2725C1.76164 17.3274 1.15381 18.7582 1.15381 20.25V23.625H3.4615L4.61535 32.625H9.23073" stroke="#666880" stroke-width="1.5" stroke-linecap="round" stroke-linejoin="round"/>
<path d="M30 12.375C31.9117 12.375 33.4615 10.864 33.4615 9C33.4615 7.13604 31.9117 5.625 30 5.625C28.0882 5.625 26.5385 7.13604 26.5385 9C26.5385 10.864 28.0882 12.375 30 12.375Z" stroke="#666880" stroke-width="1.5" stroke-linecap="round" stroke-linejoin="round"/>
<path d="M30 14.625C31.53 14.625 32.9975 15.2176 34.0794 16.2725C35.1614 17.3274 35.7692 18.7582 35.7692 20.25V23.625H33.4615L32.3076 32.625H27.6923" stroke="#666880" stroke-width="1.5" stroke-linecap="round" stroke-linejoin="round"/>
<path d="M18.4615 10.125C21.0105 10.125 23.0768 8.11028 23.0768 5.625C23.0768 3.13972 21.0105 1.125 18.4615 1.125C15.9124 1.125 13.8461 3.13972 13.8461 5.625C13.8461 8.11028 15.9124 10.125 18.4615 10.125Z" stroke="#666880" stroke-width="1.5" stroke-linecap="round" stroke-linejoin="round"/>
<path d="M26.5384 20.25C26.5384 18.1614 25.6874 16.1584 24.1727 14.6815C22.658 13.2047 20.6036 12.375 18.4614 12.375C16.3193 12.375 14.2649 13.2047 12.7502 14.6815C11.2355 16.1584 10.3845 18.1614 10.3845 20.25V23.625H13.8461L14.9999 34.875H21.923L23.0768 23.625H26.5384V20.25Z" stroke="#666880" stroke-width="1.5" stroke-linecap="round" stroke-linejoin="round"/>
</svg>
