<svg width="30" height="30" viewBox="0 0 30 30" fill="none" xmlns="http://www.w3.org/2000/svg">
<path d="M15 30C23.2843 30 30 23.2843 30 15C30 6.71573 23.2843 0 15 0C6.71573 0 0 6.71573 0 15C0 23.2843 6.71573 30 15 30Z" fill="#002840"/>
<path d="M18.0384 11.8823L17.3038 13.7729C18.0984 14.2899 18.5714 15.1791 18.5559 16.1269C18.5559 17.5975 17.3638 18.7896 15.8932 18.7896C14.4225 18.7896 13.2304 17.5975 13.2304 16.1269C13.1988 15.4192 13.4513 14.7283 13.9318 14.2078C14.4123 13.6873 15.0809 13.3805 15.7888 13.3556L16.4775 11.4357C15.1459 11.2186 13.7863 11.5982 12.7597 12.4736C11.7332 13.349 11.1437 14.6317 11.1477 15.9808V20.8013H13.2346V20.0334C14.0303 20.5382 14.955 20.802 15.8973 20.793C18.0957 20.8232 20.0213 19.3252 20.5326 17.1869C21.0439 15.0485 20.0043 12.8415 18.0301 11.8739L18.0384 11.8823Z" fill="#FFD500"/>
<path d="M11.1394 11.6527C11.7348 11.0459 12.4439 10.5623 13.2262 10.2295V7.20782H11.1394V11.6527Z" fill="#FFD500"/>
</svg>
